<mxfile host="app.diagrams.net" agent="Mozilla/5.0 (Windows NT 10.0; Win64; x64) AppleWebKit/537.36 (KHTML, like Gecko) Chrome/140.0.0.0 Safari/537.36" version="28.2.5">
  <diagram name="Página-1" id="xq0SGceUrmGoNs6Mn-ed">
    <mxGraphModel dx="727" dy="3901" grid="1" gridSize="10" guides="1" tooltips="1" connect="1" arrows="1" fold="1" page="1" pageScale="1" pageWidth="827" pageHeight="1169" math="0" shadow="0">
      <root>
        <mxCell id="0" />
        <mxCell id="1" parent="0" />
        <mxCell id="k1jryAYEEdzl4sPiF4kx-4" value="" style="edgeStyle=orthogonalEdgeStyle;rounded=0;orthogonalLoop=1;jettySize=auto;html=1;" parent="1" source="k1jryAYEEdzl4sPiF4kx-1" target="k1jryAYEEdzl4sPiF4kx-2" edge="1">
          <mxGeometry relative="1" as="geometry" />
        </mxCell>
        <mxCell id="k1jryAYEEdzl4sPiF4kx-1" value="" style="ellipse;whiteSpace=wrap;html=1;aspect=fixed;" parent="1" vertex="1">
          <mxGeometry x="374" y="-2830" width="50" height="50" as="geometry" />
        </mxCell>
        <mxCell id="k1jryAYEEdzl4sPiF4kx-8" value="" style="edgeStyle=orthogonalEdgeStyle;rounded=0;orthogonalLoop=1;jettySize=auto;html=1;" parent="1" source="k1jryAYEEdzl4sPiF4kx-2" target="k1jryAYEEdzl4sPiF4kx-7" edge="1">
          <mxGeometry relative="1" as="geometry" />
        </mxCell>
        <mxCell id="k1jryAYEEdzl4sPiF4kx-9" value="" style="edgeStyle=orthogonalEdgeStyle;rounded=0;orthogonalLoop=1;jettySize=auto;html=1;" parent="1" source="k1jryAYEEdzl4sPiF4kx-2" target="k1jryAYEEdzl4sPiF4kx-7" edge="1">
          <mxGeometry relative="1" as="geometry" />
        </mxCell>
        <mxCell id="k1jryAYEEdzl4sPiF4kx-11" value="" style="edgeStyle=orthogonalEdgeStyle;rounded=0;orthogonalLoop=1;jettySize=auto;html=1;" parent="1" source="k1jryAYEEdzl4sPiF4kx-2" target="k1jryAYEEdzl4sPiF4kx-10" edge="1">
          <mxGeometry relative="1" as="geometry" />
        </mxCell>
        <mxCell id="k1jryAYEEdzl4sPiF4kx-2" value="Atividade: Levantamento de Requisitos&lt;div&gt;&lt;span style=&quot;background-color: transparent; color: light-dark(rgb(0, 0, 0), rgb(255, 255, 255));&quot;&gt;Responsável: Analista de Negócios&lt;/span&gt;&lt;br&gt;&lt;span style=&quot;background-color: transparent; color: light-dark(rgb(0, 0, 0), rgb(255, 255, 255));&quot;&gt;Artefatos: Documento de Visão, Lista inicial de requisitos&lt;/span&gt;&lt;/div&gt;" style="rounded=1;whiteSpace=wrap;html=1;" parent="1" vertex="1">
          <mxGeometry x="243.5" y="-2740" width="311" height="70" as="geometry" />
        </mxCell>
        <mxCell id="k1jryAYEEdzl4sPiF4kx-13" value="" style="edgeStyle=orthogonalEdgeStyle;rounded=0;orthogonalLoop=1;jettySize=auto;html=1;" parent="1" source="k1jryAYEEdzl4sPiF4kx-7" target="k1jryAYEEdzl4sPiF4kx-12" edge="1">
          <mxGeometry relative="1" as="geometry" />
        </mxCell>
        <mxCell id="k1jryAYEEdzl4sPiF4kx-7" value="Atividade: Análise de Viabilidade&lt;div&gt;Resposáveis: Gerente de Projetos, Arquiteto de Software&lt;/div&gt;&lt;div&gt;Artefatos: Estudo de Viabilidade&lt;/div&gt;" style="whiteSpace=wrap;html=1;rounded=1;" parent="1" vertex="1">
          <mxGeometry x="80" y="-2580" width="316" height="60" as="geometry" />
        </mxCell>
        <mxCell id="k1jryAYEEdzl4sPiF4kx-15" value="" style="edgeStyle=orthogonalEdgeStyle;rounded=0;orthogonalLoop=1;jettySize=auto;html=1;" parent="1" source="k1jryAYEEdzl4sPiF4kx-10" target="k1jryAYEEdzl4sPiF4kx-14" edge="1">
          <mxGeometry relative="1" as="geometry" />
        </mxCell>
        <mxCell id="k1jryAYEEdzl4sPiF4kx-10" value="Ativadade: Definição de Escopo&lt;div&gt;Responsável: Gerente de Projetos&lt;br&gt;Artefatos: Documento de Escopo&lt;/div&gt;" style="whiteSpace=wrap;html=1;rounded=1;" parent="1" vertex="1">
          <mxGeometry x="410" y="-2580" width="250" height="60" as="geometry" />
        </mxCell>
        <mxCell id="k1jryAYEEdzl4sPiF4kx-12" value="Atividade: Aprovação do projeto&lt;br&gt;Responsável: Stakeholders&lt;br&gt;Artefatos: Termo de Abertura do Projeto" style="whiteSpace=wrap;html=1;rounded=1;" parent="1" vertex="1">
          <mxGeometry x="127" y="-2430" width="222" height="60" as="geometry" />
        </mxCell>
        <mxCell id="k1jryAYEEdzl4sPiF4kx-14" value="Atividade: Identificação de Risco&lt;br&gt;Resposável: Gerente de Projetos&lt;br&gt;Artefatos: Plano de Riscos Inicial" style="whiteSpace=wrap;html=1;rounded=1;" parent="1" vertex="1">
          <mxGeometry x="417.5" y="-2430" width="235" height="50" as="geometry" />
        </mxCell>
      </root>
    </mxGraphModel>
  </diagram>
</mxfile>
